<?xml version="1.0" encoding="UTF-8"?>
<svg id="Layer_1" data-name="Layer 1" xmlns="http://www.w3.org/2000/svg" viewBox="0 0 612 792">
  <defs>
    <style>
      .cls-1 {
        fill: #231f20;
      }
    </style>
  </defs>
  <path class="cls-1" d="M485.95,616.4c-3.64,15.95-9.01,39.53-17.21,62.08-7.3,20.09-10.95,30.13-18.89,41.5-19.14,27.39-45.83,39.18-58.37,44.54-35.49,15.16-66.73,12.42-75.24,11.47-34.13-3.82-57.47-18.77-71.53-28-15.38-10.1-28.7-23.86-55.33-51.38-29.49-30.48-30.82-35.84-48.92-50.17-24.02-19.01-27.53-14.2-48.58-31.71-12.12-10.08-34.3-28.97-47.57-61.41-2.58-6.31-9.96-25.68-10.46-51.62-.41-21.54,4.11-37.21,10.12-58.03,6.27-21.7,8.19-20.11,21.26-59.04,7.8-23.25,10.57-34.11,12.48-46.22,2.15-13.65,2.44-24.03,2.7-34.41.87-35.61-4.27-41.9-.67-65.79,1.56-10.36,3.33-21.45,10.12-34.08,2.47-4.59,7.49-12.87,29.02-32.39,26.02-23.59,29.11-20.93,40.49-34.41,8.27-9.8,13.5-20.48,23.95-41.84,13.3-27.17,13.36-34.44,24.97-47.57,9.48-10.73,19.85-17.68,24.38-20.67,7.47-4.94,16.42-10.85,28.34-14.17,23.46-6.53,44.16.98,51.62,3.8,19.61,7.41,31,19.33,45.8,35.17,23.79,25.47,21.28,34.16,47.74,62.5,12.25,13.12,24.89,24.2,30.11,28.76,19.78,17.27,26.73,20.37,40.95,35.64,15.19,16.31,19.91,26.36,22.27,32.52,3.78,9.87,4.6,18.19,5.31,25.56,1.48,15.32-.62,21.22-2.15,42.76-.91,12.81-1.98,27.88-.51,46.56.73,9.27,1.83,22.34,6.33,38.46,4.5,16.16,7.19,16.61,18.22,46.31,7.98,21.49,9.45,29,10.12,32.9,1.23,7.19,3.14,18.84,1.27,33.4-1.74,13.46-5.84,22.7-13.92,40.49-8.19,18.03-8.48,14.73-16.7,32.64-10.85,23.64-15.73,41.13-17.71,48.84-1.65,6.4-1.18,5.58-3.8,17.04Z"/>
</svg>